# AST/ASF file generated using VICON BodyLanguage
# -----------------------------------------------
:version 1.10
:name VICON
:units
  mass 1.0
  length 0.45
  angle deg
:documentation
   .ast/.asf automatically generated from VICON data using
   VICON BodyBuilder and BodyLanguage model FoxedUp or BRILLIANT.MOD
:root
   order TX TY TZ RX RY RZ
   axis XYZ
   position 0 0 0  
   orientation 0 0 0 
:bonedata
  begin
     id 1 
     name lhipjoint
     direction 0.630305 -0.712092 0.309259 
     length 2.29033 
     axis 0 0 0  XYZ
  end
  begin
     id 2 
     name lfemur
     direction 0.34202 -0.939693 0  
     length 6.43538  
     axis 0 0 20  XYZ
    dof rx ry rz
    limits (-160.0 20.0)
           (-70.0 70.0)
           (-60.0 70.0)
  end
  begin
     id 3 
     name ltibia
     direction 0.34202 -0.939693 0   
     length 7.43097   
     axis 0 0 20   XYZ
    dof rx
    limits (-10.0 170.0)
  end
  begin
     id 4 
     name lfoot
     direction 0.0334653 -0.0919451 0.995202   
     length 1.78438   
     axis -90 7.62852e-016 20   XYZ
    dof rx rz
    limits (-45.0 90.0)
           (-70.0 20.0)
  end
  begin
     id 5 
     name ltoes
     direction 1.53535e-011 -4.21933e-011 1   
     length 0.90832   
     axis -90 7.62852e-016 20   XYZ
    dof rx
    limits (-90.0 20.0)
  end
  begin
     id 6 
     name rhipjoint
     direction -0.682059 -0.67077 0.291312   
     length 2.43143  
     axis 0 0 0  XYZ 
  end
  begin
     id 7 
     name rfemur
     direction -0.34202 -0.939693 0   
     length 6.63488   
     axis 0 0 -20   XYZ
    dof rx ry rz
    limits (-160.0 20.0)
           (-70.0 70.0)
           (-70.0 60.0)
  end
  begin
     id 8 
     name rtibia
     direction -0.34202 -0.939693 0   
     length 6.86532   
     axis 0 0 -20   XYZ
    dof rx
    limits (-10.0 170.0)
 end
 begin
     id 9 
     name rfoot
     direction -0.105199 -0.289033 0.951521   
     length 1.77126  
     axis -90 -7.62852e-016 -20   XYZ
    dof rx rz
    limits (-45.0 90.0)
           (-20.0 70.0)
  end
  begin
     id 10 
     name rtoes
     direction -1.53551e-011 -4.21978e-011 1   
     length 0.889273   
     axis -90 -7.62852e-016 -20   XYZ
    dof rx
    limits (-90.0 20.0)
  end
  begin
     id 11 
     name lowerback
     direction -0.0514305 0.998089 0.034245   
     length 2.02077   
     axis 0 0 0   XYZ
    dof rx ry rz
    limits (-20.0 45.0)
           (-30.0 30.0)
           (-30.0 30.0)
  end
  begin
     id 12 
     name upperback
     direction 0.0203189 0.999449 -0.0262315   
     length 2.01413   
     axis 0 0 0   XYZ
    dof rx ry rz
    limits (-20.0 45.0)
           (-30.0 30.0)
           (-30.0 30.0)
  end
  begin
     id 13 
     name thorax
     direction 0.0452736 0.998142 -0.0407729   
     length 2.02986   
     axis 0 0 0   XYZ
    dof rx ry rz
    limits (-20.0 45.0)
           (-30.0 30.0)
           (-30.0 30.0)
  end
  begin
     id 14 
     name lowerneck
     direction -0.0180464 0.999645 -0.0195774   
     length 1.59034   
     axis 0 0 0   XYZ
    dof rx ry rz
    limits (-20.0 45.0)
           (-30.0 30.0)
           (-30.0 30.0)
  end
  begin
     id 15 
     name upperneck
     direction 0.0732272 0.979935 -0.18538   
     length 1.57486   
     axis 0 0 0   XYZ
    dof rx ry rz
    limits (-20.0 45.0)
           (-30.0 30.0)
           (-30.0 30.0)
  end
  begin
     id 16
     name head
     direction 0.0252963 0.997909 -0.059472  
     length 1.60334  
     axis 0 0 0   XYZ
    dof rx ry rz
    limits (-20.0 45.0)
           (-30.0 30.0)
           (-30.0 30.0)
  end
  begin
     id 17 
     name lclavicle
     direction 0.943819 0.330449 0.00315172  
     length 3.50322  
     axis 0 0 0   XYZ
    dof ry rz
    limits (-20.0 10.0)
           (0.0 20.0)
  end
  begin
     id 18 
     name lhumerus
     direction 1 -4.48949e-011 2.22502e-028   
     length 4.63208   
     axis 180 -30 -90   XYZ
    dof rx ry rz
    limits (-60.0 90.0)
           (-90.0 90.0)
           (-90.0 90.0)
  end
  begin
     id 19
     name lradius
     direction 1 -4.48967e-011 -4.10197e-027   
     length 3.41924   
     axis 180 -30 -90   XYZ
    dof rx
    limits (-10.0 170.0)
  end
  begin
     id 20
     name lwrist
     direction 1 -4.48987e-011 -1.24264e-027   
     length 1.70962   
     axis 2.50585e-015 90 90   XYZ
    dof ry
    limits (-180.0 0.0)
 end
  begin
     id 21 
     name lhand
     direction 1 -4.48983e-011 -2.48528e-027   
     length 0.62537   
     axis 1.58582e-015 90 90   XYZ
    dof rx rz
    limits (-90.0 90.0)
           (-45.0 45.0)
  end
  begin
     id 22 
     name lfingers
     direction 1 -4.48896e-011 -4.97056e-027   
     length 0.50419   
     axis 3.17164e-015 90 90   XYZ
    dof rx
    limits (0.0 90.0)
  end
  begin
     id 23
     name lthumb
     direction 0.707107 -6.34803e-011 0.707107   
     length 0.723919   
     axis -90 45 2.85299e-015   XYZ
    dof rx rz
    limits (-45.0 45.0)
           (-45.0 45.0)
  end
  begin
     id 24 
     name rclavicle
     direction -0.964499 0.260664 -0.0423695   
     length 3.91997  
     axis 0 0 0   XYZ 
    dof ry rz
    limits (-10.0 20.0)
           (-20.0 0.0)
  end
  begin
     id 25 
     name rhumerus
     direction -1 -4.48957e-011 -1.98656e-027  
     length 4.4064   
     axis 180 30 90   XYZ
    dof rx ry rz
    limits (-90.0 60.0)
           (-90.0 90.0)
           (-90.0 90.0)
  end
  begin
     id 26 
     name rradius
     direction -1 -4.48968e-011 1.96972e-027   
     length 3.44675   
     axis 180 30 90   XYZ
    dof rx
    limits (-10.0 170.0)
  end
  begin
     id 27 
     name rwrist
     direction -1 -4.48974e-011 -1.24264e-027   
     length 1.72338   
     axis 2.50585e-015 -90 -90   XYZ
    dof ry
    limits (-180.0 0.0)
  end
  begin
     id 28
     name rhand
     direction -1 -4.48901e-011 -2.48528e-027   
     length 0.513674   
     axis 1.58582e-015 -90 -90   XYZ
    dof rx rz
    limits (-90.0 90.0)
           (-45.0 45.0)
  end
  begin
     id 29
     name rfingers
     direction -1 -4.48946e-011 -4.97056e-027   
     length 0.414137   
     axis 3.17164e-015 -90 -90   XYZ
    dof rx
    limits (0.0 90.0)
  end
  begin
     id 30
     name rthumb
     direction -0.707107 -6.34859e-011 0.707107   
     length 0.59462   
     axis -90 -45 -2.85299e-015   XYZ
    dof rx rz
    limits (-45.0 45.0)
           (-45.0 45.0)
  end
:hierarchy
  begin
    root lhipjoint rhipjoint lowerback
    lhipjoint lfemur
    lfemur ltibia
    ltibia lfoot
    lfoot ltoes
    rhipjoint rfemur
    rfemur rtibia
    rtibia rfoot
    rfoot rtoes
    lowerback upperback
    upperback thorax
    thorax lowerneck lclavicle rclavicle
    lowerneck upperneck
    upperneck head
    lclavicle lhumerus
    lhumerus lradius
    lradius lwrist
    lwrist lhand lthumb
    lhand lfingers
    rclavicle rhumerus
    rhumerus rradius
    rradius rwrist
    rwrist rhand rthumb
    rhand rfingers
  end

#!OML:ASF E:\inclinewalkrobotboard\Project 1\Capture day 1\Session 1\subject1.ASF
:FULLY-SPECIFIED
:DEGREES
100
root 10.532 16.542 26.9925 -160.324 2.608 176.632
lowerback 4.45155 -3.86117 -4.65824
upperback 3.04779 -5.14548 2.9291
thorax 1.35322 -2.62873 5.78228
lowerneck -7.09766 0.904107 -3.12472
upperneck 24.448 2.78911 2.2061
head 8.70667 1.76805 1.62076
rclavicle 3.1408e-014 -2.8625e-014
rhumerus -57.8085 -25.5576 -47.4434
rradius 21.6952
rwrist 24.3784
rhand -14.1858 -37.3759
rfingers 7.12502
rthumb 11.95 -67.0148
lclavicle 3.1408e-014 -2.8625e-014
lhumerus -2.25924 -12.0571 87.6082
lradius 42.0225
lwrist -16.9601
lhand -32.9167 -28.5718
lfingers 7.12502
lthumb -6.13375 1.31939
rfemur -42.0833 9.41354 6.89303
rtibia 42.8299
rfoot -24.5074 -8.72909
rtoes -38.8068
lfemur -23.7347 -6.50847 -16.2822
ltibia 48.3004
lfoot -29.0448 9.12897
ltoes -70.1072
101
root 10.5651 16.5517 26.7617 -160.068 3.24486 176.622
lowerback 4.3958 -3.85724 -4.61285
upperback 3.09846 -5.1351 2.91021
thorax 1.42935 -2.6252 5.73052
lowerneck -6.99867 1.07793 -3.17319
upperneck 24.0518 3.0156 2.03531
head 8.54837 1.83781 1.57905
rclavicle 5.30755e-014 -2.10712e-014
rhumerus -57.3706 -26.1925 -48.0229
rradius 21.4674
rwrist 25.0553
rhand -14 -37.0419
rfingers 7.12502
rthumb 12.1291 -66.6704
lclavicle 5.30755e-014 -2.10712e-014
lhumerus -3.58919 -11.6844 88.4565
lradius 41.6297
lwrist -17.6284
lhand -33.0216 -27.7952
lfingers 7.12502
lthumb -6.23503 2.09307
rfemur -41.5669 9.92861 7.01155
rtibia 42.8499
rfoot -25.2586 -8.70807
rtoes -38.6986
lfemur -24.967 -6.66245 -16.3571
ltibia 49.5807
lfoot -29.9288 9.70736
ltoes -69.9805
102
root 10.5802 16.5709 26.5113 -160.559 4.05265 176.44
lowerback 4.87871 -3.72379 -4.60202
upperback 3.39521 -4.94586 2.66376
thorax 1.41955 -2.52242 5.48886
lowerneck -6.90257 1.20711 -2.86631
upperneck 23.6635 3.20927 1.51579
head 8.40813 1.89219 1.35853
rclavicle -1.45113e-014 -1.98785e-015
rhumerus -56.5323 -26.4741 -49.5664
rradius 21.6678
rwrist 24.8796
rhand -14.3818 -37.4945
rfingers 7.12502
rthumb 11.761 -67.1443
lclavicle -1.45113e-014 -1.98785e-015
lhumerus -4.30236 -10.8549 89.3095
lradius 39.7963
lwrist -18.5885
lhand -32.71 -27.3886
lfingers 7.12502
lthumb -5.93423 2.50832
rfemur -39.8993 10.421 7.1019
rtibia 42.337
rfoot -25.9113 -8.28923
rtoes -38.4948
lfemur -25.2934 -6.7212 -16.8602
ltibia 50.4422
lfoot -30.503 10.2438
ltoes -69.7329
103
root 10.5861 16.5964 26.283 -160.652 4.40855 176.156
lowerback 5.10797 -3.63749 -4.5633
upperback 3.59084 -4.81871 2.47468
thorax 1.45814 -2.45337 5.27673
lowerneck -7.14601 1.27508 -1.96883
upperneck 23.5777 3.43345 0.250215
head 8.46046 1.94236 0.806006
rclavicle 6.75868e-015 1.64991e-014
rhumerus -55.1461 -26.1358 -52.2242
rradius 22.4408
rwrist 23.4993
rhand -15.7247 -36.082
rfingers 7.12502
rthumb 10.4658 -65.8015
lclavicle 6.75868e-015 1.64991e-014
lhumerus -5.53228 -9.70785 90.0137
lradius 38.4465
lwrist -20.1181
lhand -32.4438 -28.5388
lfingers 7.12502
lthumb -5.67723 1.3651
rfemur -38.599 10.3631 7.02445
rtibia 41.8136
rfoot -26.5869 -7.87708
rtoes -38.0615
lfemur -26.6429 -6.98883 -17.2538
ltibia 51.6567
lfoot -30.7739 10.7005
ltoes -69.4237
104
root 10.5967 16.6299 26.0559 -160.78 4.74906 176.216
lowerback 5.48675 -3.5071 -4.35505
upperback 3.72408 -4.63111 2.37707
thorax 1.33565 -2.34563 5.07597
lowerneck -7.43563 1.36308 -1.09571
upperneck 23.768 3.74127 -1.02275
head 8.61955 2.03743 0.269298
rclavicle -2.78299e-014 9.93923e-015
rhumerus -53.6174 -27.0679 -53.6725
rradius 22.4171
rwrist 23.7972
rhand -16.7723 -35.4405
rfingers 7.12502
rthumb 9.45506 -65.2084
lclavicle -2.78299e-014 9.93923e-015
lhumerus -7.17481 -8.26845 90.5396
lradius 36.6539
lwrist -20.8214
lhand -32.5576 -27.1922
lfingers 7.12502
lthumb -5.78713 2.7088
rfemur -37.1684 10.5832 7.34698
rtibia 41.1836
rfoot -27.2457 -7.71066
rtoes -38.0551
lfemur -28.1088 -6.85382 -17.1207
ltibia 52.864
lfoot -30.9533 11.0482
ltoes -69.2073
105
root 10.6161 16.6439 25.8522 -160.15 4.76293 176.288
lowerback 5.30728 -3.43153 -4.24827
upperback 3.55901 -4.53823 2.37396
thorax 1.24249 -2.29796 5.00458
lowerneck -7.15605 1.39744 -0.988271
upperneck 23.4777 3.85426 -1.46964
head 8.48101 2.06024 0.104274
rclavicle 3.1408e-014 -3.43897e-014
rhumerus -51.4001 -25.4055 -57.6479
rradius 23.7531
rwrist 20.5644
rhand -17.4972 -36.781
rfingers 7.12502
rthumb 8.7556 -66.5794
lclavicle 3.1408e-014 -3.43897e-014
lhumerus -8.9761 -6.60896 90.8326
lradius 34.7117
lwrist -21.7961
lhand -32.3523 -26.3507
lfingers 7.12502
lthumb -5.58889 3.55557
rfemur -36.7639 10.3924 7.51773
rtibia 40.8664
rfoot -27.8804 -7.84098
rtoes -38.2333
lfemur -31.0364 -6.72079 -16.6019
ltibia 54.4601
lfoot -31.1842 11.0903
ltoes -68.8763
